<svg width="559" height="133" viewBox="0 0 559 133" fill="none" xmlns="http://www.w3.org/2000/svg">
<path d="M37.5 60.5V90.2H39C44 90.2 47.65 89.3 49.95 87.5C52.35 85.6 53.55 82.3 53.55 77.6C53.55 73.3 52.4 69.95 50.1 67.55C54.7 66.55 58.9 65.25 62.7 63.65C66.5 62.05 69.7 59.95 72.3 57.35C76.5 59.85 79.5 63.05 81.3 66.95C83.1 70.75 84 75.45 84 81.05C84 90.35 80.6 97.5 73.8 102.5C67 107.5 56.65 110 42.75 110H8.25V30.05H37.5V46.4H38.85C43.35 46.4 46.6 45.55 48.6 43.85C50.7 42.05 51.75 38.95 51.75 34.55C51.75 30.05 50.7 26.95 48.6 25.25C46.6 23.45 43.35 22.55 38.85 22.55H8.25L0 2H45C57.1 2 65.9 4.5 71.4 9.5C76.9 14.5 79.65 21.5 79.65 30.5C79.65 36.2 78.35 41 75.75 44.9C73.25 48.7 69.9 51.75 65.7 54.05C61.5 56.35 56.95 58 52.05 59C47.15 60 42.3 60.5 37.5 60.5ZM138.598 48.8V69.65H102.598V48.8H138.598ZM238.468 52.1H206.968C206.968 44.6 206.668 38.85 206.068 34.85C205.468 30.75 204.468 27.95 203.068 26.45C201.768 24.85 199.918 24.05 197.518 24.05C195.218 24.05 193.368 24.85 191.968 26.45C190.568 27.95 189.568 30.75 188.968 34.85C188.468 38.85 188.168 44.6 188.068 52.1H156.568C156.868 39.1 158.418 28.9 161.218 21.5C164.018 14 168.368 8.7 174.268 5.59999C180.268 2.39999 188.018 0.799993 197.518 0.799993C207.018 0.799993 214.718 2.39999 220.618 5.59999C226.618 8.7 231.018 14 233.818 21.5C236.718 28.9 238.268 39.1 238.468 52.1ZM206.968 59.6H238.468C238.268 70.8 237.118 79.95 235.018 87.05C233.018 94.15 229.868 99.6 225.568 103.4C227.868 105 229.968 106.9 231.868 109.1C233.768 111.3 235.318 113.85 236.518 116.75L208.768 132.65L196.768 111.5C187.368 111.4 179.718 109.75 173.818 106.55C168.018 103.35 163.718 98 160.918 90.5C158.218 82.9 156.768 72.6 156.568 59.6H188.068C188.168 67.1 188.518 72.95 189.118 77.15C189.718 81.25 190.668 84.15 191.968 85.85C193.368 87.45 195.218 88.25 197.518 88.25C199.918 88.25 201.768 87.45 203.068 85.85C204.368 84.15 205.318 81.25 205.918 77.15C206.518 72.95 206.868 67.1 206.968 59.6ZM292.459 48.8V69.65H256.459V48.8H292.459ZM369.53 87.8H354.38L304.43 2H341.63L362.63 47.15L383.63 2H412.88L369.53 87.8ZM382.73 77.6L411.23 20.9V110H382.73V77.6ZM314.18 32.6L342.68 83V110H314.18V32.6ZM469.025 48.8V69.65H433.025V48.8H469.025ZM525.696 40.7L513.396 66.95L507.096 64.1C501.196 61.4 496.646 57.8 493.446 53.3C490.246 48.8 488.646 42.25 488.646 33.65C488.646 22.65 491.496 14.45 497.196 9.04999C502.996 3.54999 512.546 0.749994 525.846 0.649995C531.346 0.649995 536.346 0.899995 540.846 1.39999C545.346 1.89999 548.946 2.44999 551.646 3.04999C554.346 3.55 555.696 3.8 555.696 3.8L552.696 27.95C552.696 27.95 551.446 27.8 548.946 27.5C546.546 27.2 543.546 26.95 539.946 26.75C536.346 26.45 532.846 26.3 529.446 26.3C525.846 26.3 523.096 26.85 521.196 27.95C519.396 28.95 518.496 30.9 518.496 33.8C518.496 35.4 519.146 36.7 520.446 37.7C521.746 38.7 523.496 39.7 525.696 40.7ZM520.296 70.25L532.746 43.7L539.196 46.55C545.996 49.55 550.946 53.3 554.046 57.8C557.146 62.2 558.696 68.5 558.696 76.7C558.696 87.8 555.796 96.35 549.996 102.35C544.196 108.35 534.646 111.4 521.346 111.5C514.746 111.5 508.596 111.05 502.896 110.15C497.196 109.35 492.146 108.4 487.746 107.3L490.746 83.15C490.746 83.15 491.946 83.35 494.346 83.75C496.846 84.15 500.146 84.55 504.246 84.95C508.346 85.35 512.846 85.55 517.746 85.55C521.546 85.55 524.396 85 526.296 83.9C528.196 82.8 529.146 81 529.146 78.5C529.146 76.8 528.696 75.45 527.796 74.45C526.896 73.45 525.296 72.45 522.996 71.45L520.296 70.25Z" fill="url(#paint0_linear_518_2)"/>
<defs>
<linearGradient id="paint0_linear_518_2" x1="283" y1="-62" x2="283" y2="173" gradientUnits="userSpaceOnUse">
<stop offset="0.325" stop-color="#D9F6EB"/>
<stop offset="0.797895" stop-color="#286190"/>
</linearGradient>
</defs>
</svg>
