<svg width="251" height="61" viewBox="0 0 251 61" fill="none" xmlns="http://www.w3.org/2000/svg">
<path d="M105.261 35.3293V43.2493H105.661C106.995 43.2493 107.968 43.0093 108.581 42.5293C109.221 42.0226 109.541 41.1426 109.541 39.8893C109.541 38.7426 109.235 37.8493 108.621 37.2093C109.848 36.9426 110.968 36.596 111.981 36.1693C112.995 35.7426 113.848 35.1826 114.541 34.4893C115.661 35.156 116.461 36.0093 116.941 37.0493C117.421 38.0626 117.661 39.316 117.661 40.8093C117.661 43.2893 116.755 45.196 114.941 46.5293C113.128 47.8626 110.368 48.5293 106.661 48.5293H97.4615V27.2093H105.261V31.5693H105.621C106.821 31.5693 107.688 31.3426 108.221 30.8893C108.781 30.4093 109.061 29.5826 109.061 28.4093C109.061 27.2093 108.781 26.3826 108.221 25.9293C107.688 25.4493 106.821 25.2093 105.621 25.2093H97.4615L95.2615 19.7293H107.261C110.488 19.7293 112.835 20.396 114.301 21.7293C115.768 23.0626 116.501 24.9293 116.501 27.3293C116.501 28.8493 116.155 30.1293 115.461 31.1693C114.795 32.1826 113.901 32.996 112.781 33.6093C111.661 34.2226 110.448 34.6626 109.141 34.9293C107.835 35.196 106.541 35.3293 105.261 35.3293ZM132.221 32.2093V37.7693H122.621V32.2093H132.221ZM158.853 33.0893H150.453C150.453 31.0893 150.373 29.556 150.213 28.4893C150.053 27.396 149.786 26.6493 149.413 26.2493C149.066 25.8226 148.573 25.6093 147.933 25.6093C147.32 25.6093 146.826 25.8226 146.453 26.2493C146.08 26.6493 145.813 27.396 145.653 28.4893C145.52 29.556 145.44 31.0893 145.413 33.0893H137.013C137.093 29.6226 137.506 26.9026 138.253 24.9293C139 22.9293 140.16 21.516 141.733 20.6893C143.333 19.836 145.4 19.4093 147.933 19.4093C150.466 19.4093 152.52 19.836 154.093 20.6893C155.693 21.516 156.866 22.9293 157.613 24.9293C158.386 26.9026 158.8 29.6226 158.853 33.0893ZM150.453 35.0893H158.853C158.8 38.076 158.493 40.516 157.933 42.4093C157.4 44.3026 156.56 45.756 155.413 46.7693C156.026 47.196 156.586 47.7026 157.093 48.2893C157.6 48.876 158.013 49.556 158.333 50.3293L150.933 54.5693L147.733 48.9293C145.226 48.9026 143.186 48.4626 141.613 47.6093C140.066 46.756 138.92 45.3293 138.173 43.3293C137.453 41.3026 137.066 38.556 137.013 35.0893H145.413C145.44 37.0893 145.533 38.6493 145.693 39.7693C145.853 40.8626 146.106 41.636 146.453 42.0893C146.826 42.516 147.32 42.7293 147.933 42.7293C148.573 42.7293 149.066 42.516 149.413 42.0893C149.76 41.636 150.013 40.8626 150.173 39.7693C150.333 38.6493 150.426 37.0893 150.453 35.0893ZM173.251 32.2093V37.7693H163.651V32.2093H173.251ZM193.803 42.6093H189.763L176.443 19.7293H186.363L191.963 31.7693L197.563 19.7293H205.363L193.803 42.6093ZM197.323 39.8893L204.923 24.7693V48.5293H197.323V39.8893ZM179.043 27.8893L186.643 41.3293V48.5293H179.043V27.8893ZM220.335 32.2093V37.7693H210.735V32.2093H220.335ZM235.447 30.0493L232.167 37.0493L230.487 36.2893C228.914 35.5693 227.7 34.6093 226.847 33.4093C225.994 32.2093 225.567 30.4626 225.567 28.1693C225.567 25.236 226.327 23.0493 227.847 21.6093C229.394 20.1426 231.94 19.396 235.487 19.3693C236.954 19.3693 238.287 19.436 239.487 19.5693C240.687 19.7026 241.647 19.8493 242.367 20.0093C243.087 20.1426 243.447 20.2093 243.447 20.2093L242.647 26.6493C242.647 26.6493 242.314 26.6093 241.647 26.5293C241.007 26.4493 240.207 26.3826 239.247 26.3293C238.287 26.2493 237.354 26.2093 236.447 26.2093C235.487 26.2093 234.754 26.356 234.247 26.6493C233.767 26.916 233.527 27.436 233.527 28.2093C233.527 28.636 233.7 28.9826 234.047 29.2493C234.394 29.516 234.86 29.7826 235.447 30.0493ZM234.007 37.9293L237.327 30.8493L239.047 31.6093C240.86 32.4093 242.18 33.4093 243.007 34.6093C243.834 35.7826 244.247 37.4626 244.247 39.6493C244.247 42.6093 243.474 44.8893 241.927 46.4893C240.38 48.0893 237.834 48.9026 234.287 48.9293C232.527 48.9293 230.887 48.8093 229.367 48.5693C227.847 48.356 226.5 48.1026 225.327 47.8093L226.127 41.3693C226.127 41.3693 226.447 41.4226 227.087 41.5293C227.754 41.636 228.634 41.7426 229.727 41.8493C230.82 41.956 232.02 42.0093 233.327 42.0093C234.34 42.0093 235.1 41.8626 235.607 41.5693C236.114 41.276 236.367 40.796 236.367 40.1293C236.367 39.676 236.247 39.316 236.007 39.0493C235.767 38.7826 235.34 38.516 234.727 38.2493L234.007 37.9293Z" fill="white"/>
<path d="M42.2933 0.00445659C39.4244 0.0931456 37.2062 2.48775 37.295 5.32579C37.3245 6.03531 37.4724 6.71526 37.7682 7.3952L38.6259 9.28724C38.7442 9.67155 38.5372 10.0854 38.1231 10.2037C37.8569 10.3515 37.5612 10.2037 37.3541 9.96718L36.1119 8.34122C35.1359 7.09958 33.6571 6.33094 32.0896 6.30137C29.2207 6.24225 26.8547 8.5186 26.7955 11.3566C26.7659 12.5983 27.18 13.7808 27.949 14.786L29.1912 16.2641H29.2207C29.4573 16.6484 29.3686 17.1214 29.0433 17.3579C28.7771 17.5649 28.4222 17.5649 28.1856 17.3579L26.6181 16.1163C25.6125 15.3476 24.3999 14.9338 23.1872 14.9633C20.348 15.0225 18.0706 17.3875 18.1298 20.2551C18.1593 21.8219 18.9283 23.3001 20.1705 24.2757L21.8563 25.5764C22.1817 25.8721 22.1817 26.3451 21.8268 26.6112C21.7294 26.712 21.6033 26.7803 21.4657 26.8067C21.328 26.8332 21.1856 26.8165 21.0578 26.759H21.0282L19.2241 25.9312C18.5438 25.6651 17.8636 25.4878 17.1537 25.4582C14.3145 25.3695 11.9188 27.6163 11.8301 30.4839C11.8301 32.6124 13.0131 34.5636 14.9651 35.3914L48.6521 50.3798L62.2275 36.8104L47.2325 3.13813C46.4044 1.15741 44.3636 -0.0842324 42.2933 0.00445659ZM44.7481 12.1253C45.9903 12.0957 47.1142 12.8052 47.5874 13.9286L56.6081 34.1497L44.9256 22.5019L42.175 16.2641C41.2877 14.4016 42.6482 12.1844 44.7481 12.1253ZM35.0472 20.2551C35.8458 20.2551 36.5852 20.5507 37.1471 21.142L51.3731 35.3618C52.5562 36.4852 52.5857 38.3477 51.4619 39.5302C50.2788 40.7127 48.4451 40.7423 47.2029 39.5302L32.9769 25.3104C32.6956 25.0427 32.4706 24.7215 32.315 24.3658C32.1595 24.01 32.0765 23.6268 32.071 23.2386C32.0655 22.8504 32.1376 22.465 32.2829 22.105C32.4283 21.745 32.6441 21.4176 32.9177 21.142C33.4797 20.5507 34.2487 20.2551 35.0472 20.2551ZM27.0025 30.07C27.387 30.07 27.8011 30.1883 28.0969 30.3361L34.3965 33.115L46.0495 44.7628L25.7604 35.7461C22.7436 34.4453 23.7492 29.9813 27.0025 30.07ZM65.8949 41.5109L53.3547 54.0456L55.8687 56.5585C58.1164 58.7757 61.3698 59.633 64.4161 58.8348C65.9167 58.4262 67.2845 57.633 68.3842 56.5338C69.4839 55.4346 70.2774 54.0673 70.6862 52.5675C71.4848 49.5225 70.6271 46.2705 68.4089 44.0237L65.8949 41.5109Z" fill="white"/>
<path d="M49.0096 10.4721C65.798 2.7939 81.8198 5.11721 86.1888 10.982C91.3559 18.2865 81.9639 30.4091 81.9639 30.4091C79.4773 33.5014 75.298 37.7964 66.7541 44.7685C53.4446 53.5468 50.6993 54.3943 50.6993 54.3943C50.6993 54.3943 22.8147 69.2716 0 54.3943C15.9787 57.2784 26.9108 55.3055 40.5594 48.1538C54.9243 41.3965 54.0793 41.3985 61.6842 35.4849C63.8567 33.7956 75.1768 29.2998 76.894 19.4285C78.6111 9.55716 69.0936 7.17074 49.0096 10.4721Z" fill="white"/>
</svg>
